# xmcd
#
# Track frame offsets: 
#        150
#        25514
#        41834
#        63466
#        83257
#        102975
#        122750
#        157247
#        175516
#        196599
#        213410
#
# Disc length: 3042 seconds
#
# Revision: 0
# Processed by: cddbd v1.5.2PL0 Copyright (c) Steve Scherf et al.
# Submitted via: ExactAudioCopy v0.99pb5
#
DISCID=850be00b
DTITLE=Terry 'Big T' Williams - Jump Back Big T's In The House
DYEAR=2010
DGENRE=Blues
TTITLE0=The Night Doctor
TTITLE1=Bound For Clarksdale
TTITLE2=Booty Wild
TTITLE3=How I Got The Blues
TTITLE4=Change Must Come
TTITLE5=Dew Man
TTITLE6=Rollin' Stone AKA Catfish Blues
TTITLE7=Jump Back Big T's In The House
TTITLE8=Riverside Hotel
TTITLE9=Devil In The Cottonfield
TTITLE10=Last Jelly Roll
EXTD=
EXTT0=
EXTT1=
EXTT2=
EXTT3=
EXTT4=
EXTT5=
EXTT6=
EXTT7=
EXTT8=
EXTT9=
EXTT10=
PLAYORDER=
